<?xml version="1.0" encoding="UTF-8"?>
<svg xmlns="http://www.w3.org/2000/svg" xmlns:xlink="http://www.w3.org/1999/xlink" width="2999.99" height="3000" viewBox="0 0 2999.99 3000">
<defs>
<clipPath id="clip-0">

</clipPath>
<radialGradient id="radial-pattern-0" gradientUnits="userSpaceOnUse" cx="0" cy="0" fx="0" fy="0" r="1500" gradientTransform="matrix(1, 0, 0, 1, 1500, 1500)">
<stop offset="0" stop-color="rgb(99.914551%, 99.917603%, 99.920654%)" stop-opacity="1"/>
<stop offset="0.125" stop-color="rgb(99.736023%, 99.745178%, 99.754333%)" stop-opacity="1"/>
<stop offset="0.179688" stop-color="rgb(99.528503%, 99.545288%, 99.560547%)" stop-opacity="1"/>
<stop offset="0.230469" stop-color="rgb(99.281311%, 99.305725%, 99.330139%)" stop-opacity="1"/>
<stop offset="0.277344" stop-color="rgb(99.003601%, 99.038696%, 99.072266%)" stop-opacity="1"/>
<stop offset="0.320312" stop-color="rgb(98.710632%, 98.754883%, 98.799133%)" stop-opacity="1"/>
<stop offset="0.359375" stop-color="rgb(98.394775%, 98.449707%, 98.506165%)" stop-opacity="1"/>
<stop offset="0.398438" stop-color="rgb(98.06366%, 98.129272%, 98.196411%)" stop-opacity="1"/>
<stop offset="0.433594" stop-color="rgb(97.718811%, 97.796631%, 97.875977%)" stop-opacity="1"/>
<stop offset="0.46875" stop-color="rgb(97.367859%, 97.459412%, 97.549438%)" stop-opacity="1"/>
<stop offset="0.5" stop-color="rgb(97.013855%, 97.117615%, 97.219849%)" stop-opacity="1"/>
<stop offset="0.53125" stop-color="rgb(96.662903%, 96.77887%, 96.893311%)" stop-opacity="1"/>
<stop offset="0.558594" stop-color="rgb(96.315002%, 96.443176%, 96.569824%)" stop-opacity="1"/>
<stop offset="0.585938" stop-color="rgb(95.979309%, 96.118164%, 96.257019%)" stop-opacity="1"/>
<stop offset="0.609375" stop-color="rgb(95.654297%, 95.803833%, 95.954895%)" stop-opacity="1"/>
<stop offset="0.632812" stop-color="rgb(95.346069%, 95.506287%, 95.666504%)" stop-opacity="1"/>
<stop offset="0.652344" stop-color="rgb(95.054626%, 95.225525%, 95.396423%)" stop-opacity="1"/>
<stop offset="0.671875" stop-color="rgb(94.755554%, 94.937134%, 95.117188%)" stop-opacity="1"/>
<stop offset="0.691406" stop-color="rgb(94.47937%, 94.670105%, 94.86084%)" stop-opacity="1"/>
<stop offset="0.707031" stop-color="rgb(94.2276%, 94.42749%, 94.625854%)" stop-opacity="1"/>
<stop offset="0.722656" stop-color="rgb(93.969727%, 94.177246%, 94.386292%)" stop-opacity="1"/>
<stop offset="0.738281" stop-color="rgb(93.707275%, 93.92395%, 94.140625%)" stop-opacity="1"/>
<stop offset="0.753906" stop-color="rgb(93.47229%, 93.696594%, 93.922424%)" stop-opacity="1"/>
<stop offset="0.765625" stop-color="rgb(93.266296%, 93.49823%, 93.731689%)" stop-opacity="1"/>
<stop offset="0.777344" stop-color="rgb(93.058777%, 93.296814%, 93.537903%)" stop-opacity="1"/>
<stop offset="0.789062" stop-color="rgb(92.84668%, 93.093872%, 93.341064%)" stop-opacity="1"/>
<stop offset="0.800781" stop-color="rgb(92.633057%, 92.886353%, 93.141174%)" stop-opacity="1"/>
<stop offset="0.8125" stop-color="rgb(92.414856%, 92.675781%, 92.938232%)" stop-opacity="1"/>
<stop offset="0.824219" stop-color="rgb(92.118835%, 92.390442%, 92.662048%)" stop-opacity="1"/>
<stop offset="0.84375" stop-color="rgb(91.740417%, 92.025757%, 92.30957%)" stop-opacity="1"/>
<stop offset="0.863281" stop-color="rgb(91.394043%, 91.690063%, 91.98761%)" stop-opacity="1"/>
<stop offset="0.878906" stop-color="rgb(91.119385%, 91.424561%, 91.731262%)" stop-opacity="1"/>
<stop offset="0.890625" stop-color="rgb(90.879822%, 91.194153%, 91.508484%)" stop-opacity="1"/>
<stop offset="0.902344" stop-color="rgb(90.637207%, 90.959167%, 91.282654%)" stop-opacity="1"/>
<stop offset="0.914062" stop-color="rgb(90.432739%, 90.762329%, 91.091919%)" stop-opacity="1"/>
<stop offset="0.921875" stop-color="rgb(90.267944%, 90.602112%, 90.937805%)" stop-opacity="1"/>
<stop offset="0.929688" stop-color="rgb(90.016174%, 90.361023%, 90.704346%)" stop-opacity="1"/>
<stop offset="0.945312" stop-color="rgb(89.720154%, 90.075684%, 90.429688%)" stop-opacity="1"/>
<stop offset="0.957031" stop-color="rgb(89.506531%, 89.868164%, 90.229797%)" stop-opacity="1"/>
<stop offset="0.964844" stop-color="rgb(89.245605%, 89.616394%, 89.987183%)" stop-opacity="1"/>
<stop offset="0.980469" stop-color="rgb(88.983154%, 89.363098%, 89.743042%)" stop-opacity="1"/>
<stop offset="0.988281" stop-color="rgb(88.760376%, 89.147949%, 89.535522%)" stop-opacity="1"/>
<stop offset="1" stop-color="rgb(88.626099%, 89.01825%, 89.4104%)" stop-opacity="1"/>
</radialGradient>
</defs>
<g clip-path="url(#clip-0)">
<path fill-rule="nonzero" fill="url(#radial-pattern-0)" d="M 0 0 L 0 3000 L 2999.988281 3000 L 2999.988281 0 Z M 0 0 "/>
</g>
<path fill-rule="nonzero" fill="rgb(98.046875%, 36.083984%, 1.177979%)" fill-opacity="1" d="M 2351.148438 2079.570312 C 2357.578125 2079.53125 2363.53125 2078.769531 2369.011719 2077.289062 C 2374.460938 2075.789062 2379.460938 2073.78125 2384.011719 2071.261719 C 2388.519531 2068.75 2392.601562 2065.941406 2396.210938 2062.851562 L 2396.210938 2017.03125 L 2350.398438 2017.03125 L 2350.398438 2037.078125 L 2373.761719 2037.078125 L 2373.761719 2052.148438 C 2370.820312 2054.261719 2367.480469 2055.839844 2363.789062 2056.890625 C 2360.089844 2057.949219 2356.148438 2058.480469 2351.898438 2058.480469 C 2347.199219 2058.460938 2342.910156 2057.621094 2339.019531 2055.96875 C 2335.121094 2054.308594 2331.75 2051.96875 2328.921875 2048.980469 C 2326.078125 2046 2323.871094 2042.449219 2322.308594 2038.378906 C 2320.75 2034.308594 2319.980469 2029.871094 2319.949219 2025.019531 L 2319.949219 2024.71875 C 2319.980469 2020.199219 2320.75 2015.96875 2322.308594 2012.011719 C 2323.871094 2008.058594 2326 2004.570312 2328.769531 2001.550781 C 2331.53125 1998.539062 2334.71875 1996.179688 2338.390625 1994.480469 C 2342.050781 1992.769531 2346 1991.890625 2350.25 1991.859375 C 2354.289062 1991.859375 2357.878906 1992.289062 2361.019531 1993.109375 C 2364.160156 1993.96875 2367.078125 1995.179688 2369.761719 1996.761719 C 2372.480469 1998.371094 2375.160156 2000.300781 2377.828125 2002.558594 L 2392.441406 1984.929688 C 2389.710938 1982.601562 2386.898438 1980.5 2384.011719 1978.730469 C 2381.089844 1976.921875 2378 1975.410156 2374.710938 1974.179688 C 2371.421875 1972.96875 2367.828125 1972.039062 2363.941406 1971.421875 C 2360.039062 1970.789062 2355.71875 1970.460938 2351 1970.460938 C 2344.589844 1970.480469 2338.589844 1971.421875 2332.988281 1973.238281 C 2327.359375 1975.078125 2322.289062 1977.671875 2317.71875 1981.03125 C 2313.171875 1984.371094 2309.25 1988.320312 2305.960938 1992.859375 C 2302.671875 1997.390625 2300.128906 2002.378906 2298.371094 2007.839844 C 2296.589844 2013.261719 2295.710938 2018.988281 2295.691406 2025.019531 L 2295.691406 2025.320312 C 2295.710938 2033.160156 2297.058594 2040.371094 2299.730469 2046.949219 C 2302.390625 2053.550781 2306.191406 2059.28125 2311.109375 2064.148438 C 2316.011719 2069.03125 2321.859375 2072.789062 2328.621094 2075.480469 C 2335.398438 2078.179688 2342.910156 2079.53125 2351.148438 2079.570312 Z M 2181.289062 2077.769531 L 2204.199219 2077.769531 L 2204.199219 2010.699219 L 2255.289062 2077.769531 L 2275.039062 2077.769531 L 2275.039062 1972.269531 L 2252.128906 1972.269531 L 2252.128906 2037.21875 L 2202.691406 1972.269531 L 2181.289062 1972.269531 Z M 2131.710938 2077.769531 L 2154.910156 2077.769531 L 2154.910156 1972.269531 L 2131.710938 1972.269531 Z M 2057.550781 2077.769531 L 2080.761719 2077.769531 L 2080.761719 1993.671875 L 2112.871094 1993.671875 L 2112.871094 1972.269531 L 2025.449219 1972.269531 L 2025.449219 1993.671875 L 2057.550781 1993.671875 Z M 1932 2077.769531 L 2012.339844 2077.769531 L 2012.339844 2057.121094 L 1955.070312 2057.121094 L 1955.070312 2034.96875 L 2004.800781 2034.96875 L 2004.800781 2014.320312 L 1955.070312 2014.320312 L 1955.070312 1992.910156 L 2011.578125 1992.910156 L 2011.578125 1972.269531 L 1932 1972.269531 Z M 1821.980469 2077.769531 L 1845.191406 2077.769531 L 1845.191406 2045.519531 L 1857.398438 2032.859375 L 1890.101562 2077.769531 L 1917.988281 2077.769531 L 1873.070312 2017.03125 L 1916.03125 1972.269531 L 1888 1972.269531 L 1845.191406 2018.390625 L 1845.191406 1972.269531 L 1821.980469 1972.269531 Z M 1736.21875 2023.511719 L 1736.21875 1993.21875 L 1759.28125 1993.21875 C 1763.070312 1993.21875 1766.320312 1993.769531 1769.03125 1994.898438 C 1771.761719 1996.03125 1773.851562 1997.710938 1775.308594 1999.949219 C 1776.769531 2002.179688 1777.519531 2004.980469 1777.519531 2008.289062 L 1777.519531 2008.589844 C 1777.519531 2011.578125 1776.820312 2014.191406 1775.441406 2016.398438 C 1774.03125 2018.640625 1772.019531 2020.371094 1769.378906 2021.628906 C 1766.71875 2022.859375 1763.53125 2023.488281 1759.730469 2023.511719 Z M 1713.011719 2077.769531 L 1736.21875 2077.769531 L 1736.21875 2044.011719 L 1754.460938 2044.011719 L 1777.070312 2077.769531 L 1804.199219 2077.769531 L 1778.421875 2040.089844 C 1782.921875 2038.429688 1786.871094 2036.121094 1790.261719 2033.179688 C 1793.621094 2030.25 1796.261719 2026.621094 1798.140625 2022.328125 C 1800.050781 2018.03125 1801.011719 2013.058594 1801.03125 2007.378906 L 1801.03125 2007.089844 C 1801.03125 2002.078125 1800.25 1997.558594 1798.71875 1993.488281 C 1797.191406 1989.421875 1794.929688 1985.910156 1791.988281 1982.96875 C 1788.519531 1979.480469 1784.199219 1976.839844 1779.050781 1975 C 1773.898438 1973.191406 1767.949219 1972.269531 1761.238281 1972.269531 L 1713.011719 1972.269531 Z M 1626.5 2033.609375 L 1640.519531 1999.398438 L 1654.53125 2033.609375 Z M 1584.898438 2077.769531 L 1608.570312 2077.769531 L 1618.210938 2054.109375 L 1662.820312 2054.109375 L 1672.46875 2077.769531 L 1696.730469 2077.769531 L 1651.519531 1971.519531 L 1630.121094 1971.519531 Z M 1463.121094 2077.769531 L 1485.878906 2077.769531 L 1485.878906 2009.339844 L 1515.269531 2053.960938 L 1515.878906 2053.960938 L 1545.558594 2008.890625 L 1545.558594 2077.769531 L 1568.628906 2077.769531 L 1568.628906 1972.269531 L 1543.601562 1972.269531 L 1515.878906 2016.878906 L 1488.140625 1972.269531 L 1463.121094 1972.269531 Z M 1324.621094 2077.769531 L 1400.429688 2077.769531 L 1400.429688 2056.671875 L 1347.828125 2056.671875 L 1347.828125 1972.269531 L 1324.621094 1972.269531 Z M 1238.101562 2033.609375 L 1252.121094 1999.398438 L 1266.140625 2033.609375 Z M 1196.511719 2077.769531 L 1220.171875 2077.769531 L 1229.808594 2054.109375 L 1274.429688 2054.109375 L 1284.070312 2077.769531 L 1308.339844 2077.769531 L 1263.121094 1971.519531 L 1241.71875 1971.519531 Z M 1146.019531 2077.769531 L 1169.230469 2077.769531 L 1169.230469 1993.671875 L 1201.328125 1993.671875 L 1201.328125 1972.269531 L 1113.910156 1972.269531 L 1113.910156 1993.671875 L 1146.019531 1993.671875 Z M 1071.859375 2077.769531 L 1095.070312 2077.769531 L 1095.070312 1972.269531 L 1071.859375 1972.269531 Z M 1003.441406 2079.570312 C 1009.871094 2079.53125 1015.820312 2078.769531 1021.300781 2077.289062 C 1026.75 2075.789062 1031.75 2073.78125 1036.289062 2071.261719 C 1040.808594 2068.75 1044.890625 2065.941406 1048.5 2062.851562 L 1048.5 2017.03125 L 1002.679688 2017.03125 L 1002.679688 2037.078125 L 1026.039062 2037.078125 L 1026.039062 2052.148438 C 1023.101562 2054.261719 1019.761719 2055.839844 1016.070312 2056.890625 C 1012.378906 2057.949219 1008.441406 2058.480469 1004.191406 2058.480469 C 999.492188 2058.460938 995.195312 2057.621094 991.300781 2055.96875 C 987.410156 2054.308594 984.042969 2051.96875 981.207031 2048.980469 C 978.367188 2046 976.15625 2042.449219 974.597656 2038.378906 C 973.042969 2034.308594 972.261719 2029.871094 972.238281 2025.019531 L 972.238281 2024.71875 C 972.261719 2020.199219 973.042969 2015.96875 974.597656 2012.011719 C 976.15625 2008.058594 978.292969 2004.570312 981.054688 2001.550781 C 983.816406 1998.539062 987.007812 1996.179688 990.675781 1994.480469 C 994.34375 1992.769531 998.289062 1991.890625 1002.53125 1991.859375 C 1006.578125 1991.859375 1010.171875 1992.289062 1013.308594 1993.109375 C 1016.449219 1993.96875 1019.359375 1995.179688 1022.050781 1996.761719 C 1024.761719 1998.371094 1027.449219 2000.300781 1030.109375 2002.558594 L 1044.730469 1984.929688 C 1041.988281 1982.601562 1039.179688 1980.5 1036.289062 1978.730469 C 1033.378906 1976.921875 1030.289062 1975.410156 1027 1974.179688 C 1023.710938 1972.96875 1020.121094 1972.039062 1016.21875 1971.421875 C 1012.328125 1970.789062 1008.011719 1970.460938 1003.289062 1970.460938 C 996.878906 1970.480469 990.878906 1971.421875 985.273438 1973.238281 C 979.648438 1975.078125 974.574219 1977.671875 970 1981.03125 C 965.457031 1984.371094 961.535156 1988.320312 958.246094 1992.859375 C 954.957031 1997.390625 952.417969 2002.378906 950.664062 2007.839844 C 948.875 2013.261719 947.996094 2018.988281 947.972656 2025.019531 L 947.972656 2025.320312 C 947.996094 2033.160156 949.355469 2040.371094 952.019531 2046.949219 C 954.679688 2053.550781 958.472656 2059.28125 963.398438 2064.148438 C 968.296875 2069.03125 974.148438 2072.789062 980.90625 2075.480469 C 987.683594 2078.179688 995.195312 2079.53125 1003.441406 2079.570312 Z M 903.058594 2077.769531 L 926.269531 2077.769531 L 926.269531 1972.269531 L 903.058594 1972.269531 Z M 807.351562 2056.820312 L 807.351562 1993.21875 L 825.289062 1993.21875 C 830.0625 1993.25 834.382812 1994.019531 838.273438 1995.550781 C 842.167969 1997.089844 845.511719 1999.269531 848.324219 2002.109375 C 851.109375 2004.921875 853.269531 2008.289062 854.804688 2012.148438 C 856.3125 2016.050781 857.066406 2020.320312 857.089844 2025.019531 L 857.089844 2025.320312 C 857.066406 2030.011719 856.3125 2034.289062 854.804688 2038.128906 C 853.269531 2041.980469 851.109375 2045.289062 848.324219 2048.078125 C 845.511719 2050.871094 842.167969 2053.019531 838.273438 2054.539062 C 834.382812 2056.039062 830.0625 2056.789062 825.289062 2056.820312 Z M 784.140625 2077.769531 L 825.289062 2077.769531 C 831.945312 2077.75 838.125 2076.859375 843.851562 2075.128906 C 849.578125 2073.398438 854.753906 2070.941406 859.351562 2067.75 C 863.949219 2064.558594 867.890625 2060.789062 871.183594 2056.421875 C 874.449219 2052.050781 876.960938 2047.199219 878.71875 2041.898438 C 880.453125 2036.601562 881.332031 2030.96875 881.355469 2025.019531 L 881.355469 2024.71875 C 881.332031 2017.261719 879.949219 2010.351562 877.261719 2003.988281 C 874.570312 1997.640625 870.730469 1992.089844 865.757812 1987.371094 C 860.78125 1982.621094 854.878906 1978.921875 848.046875 1976.289062 C 841.1875 1973.648438 833.601562 1972.320312 825.289062 1972.269531 L 784.140625 1972.269531 L 784.140625 2077.769531 "/>
<path fill-rule="nonzero" fill="rgb(59.959412%, 59.959412%, 59.959412%)" fill-opacity="1" d="M 2120.21875 2207.429688 L 2176.898438 2207.429688 L 2176.898438 2199.449219 L 2128.980469 2199.449219 L 2128.980469 2172.269531 L 2171.351562 2172.269531 L 2171.351562 2164.28125 L 2128.980469 2164.28125 L 2128.980469 2137.769531 L 2176.351562 2137.769531 L 2176.351562 2129.789062 L 2120.21875 2129.789062 Z M 1999.308594 2207.429688 L 2007.851562 2207.429688 L 2007.851562 2143.761719 L 2057.988281 2207.429688 L 2064.980469 2207.429688 L 2064.980469 2129.789062 L 2056.441406 2129.789062 L 2056.441406 2192.011719 L 2007.519531 2129.789062 L 1999.308594 2129.789062 Z M 1934.53125 2207.429688 L 1943.300781 2207.429688 L 1943.300781 2129.789062 L 1934.53125 2129.789062 Z M 1831.820312 2207.429688 L 1884.28125 2207.429688 L 1884.28125 2199.328125 L 1840.578125 2199.328125 L 1840.578125 2129.789062 L 1831.820312 2129.789062 Z M 1747.628906 2208.761719 C 1752.011719 2208.71875 1756.089844 2208.191406 1759.921875 2207.121094 C 1763.75 2206.039062 1767.238281 2204.621094 1770.421875 2202.828125 C 1773.601562 2201.050781 1776.390625 2199.070312 1778.800781 2196.890625 L 1778.800781 2165.941406 L 1746.738281 2165.941406 L 1746.738281 2173.820312 L 1770.371094 2173.820312 L 1770.371094 2193.121094 C 1768.570312 2194.578125 1766.519531 2195.898438 1764.171875 2197.058594 C 1761.828125 2198.21875 1759.269531 2199.148438 1756.53125 2199.828125 C 1753.78125 2200.511719 1750.941406 2200.871094 1747.960938 2200.878906 C 1743.230469 2200.871094 1738.96875 2200.058594 1735.199219 2198.449219 C 1731.429688 2196.839844 1728.191406 2194.601562 1725.519531 2191.699219 C 1722.851562 2188.800781 1720.800781 2185.371094 1719.378906 2181.480469 C 1717.960938 2177.550781 1717.25 2173.269531 1717.230469 2168.609375 L 1717.230469 2168.378906 C 1717.25 2164.03125 1717.988281 2159.941406 1719.441406 2156.109375 C 1720.871094 2152.28125 1722.910156 2148.898438 1725.53125 2145.980469 C 1728.179688 2143.039062 1731.28125 2140.75 1734.871094 2139.078125 C 1738.46875 2137.421875 1742.429688 2136.570312 1746.738281 2136.550781 C 1750.378906 2136.570312 1753.601562 2136.941406 1756.410156 2137.699219 C 1759.238281 2138.429688 1761.769531 2139.46875 1764.03125 2140.800781 C 1766.28125 2142.128906 1768.390625 2143.671875 1770.371094 2145.421875 L 1776.019531 2138.769531 C 1773.46875 2136.589844 1770.789062 2134.71875 1767.980469 2133.179688 C 1765.171875 2131.660156 1762.070312 2130.488281 1758.660156 2129.671875 C 1755.28125 2128.859375 1751.421875 2128.460938 1747.070312 2128.460938 C 1742.398438 2128.46875 1738.070312 2129.191406 1734.070312 2130.578125 C 1730.078125 2131.988281 1726.5 2133.949219 1723.300781 2136.460938 C 1720.121094 2138.96875 1717.398438 2141.910156 1715.121094 2145.269531 C 1712.871094 2148.640625 1711.148438 2152.300781 1709.949219 2156.261719 C 1708.75 2160.210938 1708.160156 2164.320312 1708.140625 2168.609375 L 1708.140625 2168.828125 C 1708.140625 2173.289062 1708.730469 2177.5 1709.890625 2181.5 C 1711.078125 2185.488281 1712.769531 2189.140625 1715.019531 2192.480469 C 1717.25 2195.78125 1719.96875 2198.671875 1723.191406 2201.089844 C 1726.398438 2203.53125 1730.039062 2205.421875 1734.148438 2206.75 C 1738.25 2208.078125 1742.738281 2208.75 1747.628906 2208.761719 Z M 1610.191406 2178.921875 L 1627.941406 2139.441406 L 1645.570312 2178.921875 Z M 1588.558594 2207.429688 L 1597.550781 2207.429688 L 1606.75 2186.910156 L 1649.011719 2186.910156 L 1658.109375 2207.429688 L 1667.539062 2207.429688 L 1632.148438 2129.230469 L 1623.949219 2129.230469 Z M 1520.558594 2207.429688 L 1529.441406 2207.429688 L 1529.441406 2137.878906 L 1555.511719 2137.878906 L 1555.511719 2129.789062 L 1494.5 2129.789062 L 1494.5 2137.878906 L 1520.558594 2137.878906 Z M 1362.058594 2169.378906 L 1362.058594 2137.878906 L 1386.019531 2137.878906 C 1390.210938 2137.878906 1393.78125 2138.511719 1396.738281 2139.730469 C 1399.699219 2140.949219 1401.949219 2142.710938 1403.5 2144.980469 C 1405.070312 2147.261719 1405.851562 2149.988281 1405.871094 2153.191406 L 1405.871094 2153.410156 C 1405.851562 2155.910156 1405.371094 2158.148438 1404.390625 2160.121094 C 1403.410156 2162.078125 1402.039062 2163.761719 1400.25 2165.128906 C 1398.480469 2166.519531 1396.371094 2167.570312 1393.949219 2168.289062 C 1391.5 2169.011719 1388.828125 2169.378906 1385.898438 2169.378906 Z M 1353.289062 2207.429688 L 1362.058594 2207.429688 L 1362.058594 2177.261719 L 1384.238281 2177.261719 L 1406.761719 2207.429688 L 1417.519531 2207.429688 L 1393.671875 2175.710938 C 1396.738281 2175.148438 1399.550781 2174.269531 1402.121094 2173.050781 C 1404.671875 2171.820312 1406.898438 2170.28125 1408.789062 2168.378906 C 1410.679688 2166.5 1412.140625 2164.28125 1413.171875 2161.730469 C 1414.210938 2159.179688 1414.730469 2156.289062 1414.738281 2153.078125 L 1414.738281 2152.851562 C 1414.730469 2149.789062 1414.210938 2146.941406 1413.171875 2144.328125 C 1412.121094 2141.710938 1410.660156 2139.449219 1408.75 2137.550781 C 1406.300781 2135.089844 1403.210938 2133.179688 1399.46875 2131.839844 C 1395.738281 2130.488281 1391.46875 2129.800781 1386.679688 2129.789062 L 1353.289062 2129.789062 Z M 1266.878906 2208.648438 C 1271.761719 2208.648438 1276.160156 2207.910156 1280.140625 2206.449219 C 1284.089844 2205.011719 1287.519531 2202.828125 1290.359375 2199.941406 C 1293.210938 2197.058594 1295.410156 2193.480469 1296.949219 2189.191406 C 1298.480469 2184.890625 1299.25 2179.921875 1299.269531 2174.269531 L 1299.269531 2129.789062 L 1290.511719 2129.789062 L 1290.511719 2174.929688 C 1290.488281 2180.589844 1289.53125 2185.320312 1287.628906 2189.109375 C 1285.71875 2192.921875 1283.019531 2195.769531 1279.53125 2197.679688 C 1276.039062 2199.589844 1271.890625 2200.550781 1267.109375 2200.550781 C 1262.171875 2200.539062 1257.941406 2199.519531 1254.390625 2197.488281 C 1250.851562 2195.449219 1248.140625 2192.488281 1246.25 2188.621094 C 1244.351562 2184.710938 1243.390625 2179.96875 1243.371094 2174.378906 L 1243.371094 2129.789062 L 1234.601562 2129.789062 L 1234.601562 2174.929688 C 1234.621094 2180.421875 1235.398438 2185.269531 1236.949219 2189.460938 C 1238.488281 2193.660156 1240.691406 2197.191406 1243.550781 2200.019531 C 1246.398438 2202.871094 1249.800781 2205.03125 1253.738281 2206.46875 C 1257.699219 2207.910156 1262.078125 2208.648438 1266.878906 2208.648438 Z M 1144.53125 2200.660156 C 1140.078125 2200.628906 1135.988281 2199.789062 1132.261719 2198.128906 C 1128.539062 2196.488281 1125.308594 2194.171875 1122.570312 2191.25 C 1119.839844 2188.320312 1117.710938 2184.910156 1116.210938 2181.050781 C 1114.699219 2177.210938 1113.941406 2173.050781 1113.921875 2168.609375 L 1113.921875 2168.378906 C 1113.941406 2163.949219 1114.699219 2159.808594 1116.179688 2155.960938 C 1117.648438 2152.140625 1119.738281 2148.75 1122.460938 2145.851562 C 1125.179688 2142.949219 1128.378906 2140.679688 1132.070312 2139.050781 C 1135.769531 2137.398438 1139.859375 2136.570312 1144.308594 2136.550781 C 1148.769531 2136.570312 1152.851562 2137.421875 1156.589844 2139.078125 C 1160.308594 2140.730469 1163.539062 2143.019531 1166.28125 2145.960938 C 1169.011719 2148.898438 1171.140625 2152.300781 1172.640625 2156.148438 C 1174.148438 2160.011719 1174.910156 2164.171875 1174.929688 2168.609375 L 1174.929688 2168.828125 C 1174.910156 2173.269531 1174.148438 2177.410156 1172.671875 2181.261719 C 1171.191406 2185.078125 1169.101562 2188.46875 1166.390625 2191.371094 C 1163.691406 2194.269531 1160.46875 2196.539062 1156.769531 2198.171875 C 1153.078125 2199.808594 1148.988281 2200.648438 1144.53125 2200.660156 Z M 1144.308594 2208.761719 C 1149.050781 2208.75 1153.449219 2208.039062 1157.511719 2206.640625 C 1161.578125 2205.25 1165.238281 2203.289062 1168.488281 2200.789062 C 1171.75 2198.28125 1174.539062 2195.359375 1176.851562 2192 C 1179.160156 2188.628906 1180.941406 2184.96875 1182.160156 2181.019531 C 1183.390625 2177.039062 1184 2172.910156 1184.019531 2168.609375 L 1184.019531 2168.378906 C 1184 2164.078125 1183.390625 2159.960938 1182.191406 2156.019531 C 1180.96875 2152.058594 1179.21875 2148.421875 1176.921875 2145.070312 C 1174.628906 2141.738281 1171.878906 2138.820312 1168.640625 2136.351562 C 1165.410156 2133.851562 1161.761719 2131.929688 1157.71875 2130.539062 C 1153.671875 2129.171875 1149.269531 2128.46875 1144.53125 2128.460938 C 1139.800781 2128.46875 1135.398438 2129.171875 1131.328125 2130.578125 C 1127.269531 2131.96875 1123.609375 2133.898438 1120.351562 2136.421875 C 1117.101562 2138.941406 1114.308594 2141.859375 1112 2145.21875 C 1109.691406 2148.589844 1107.910156 2152.238281 1106.691406 2156.199219 C 1105.449219 2160.179688 1104.839844 2164.300781 1104.820312 2168.609375 L 1104.820312 2168.828125 C 1104.839844 2173.140625 1105.449219 2177.261719 1106.671875 2181.199219 C 1107.878906 2185.148438 1109.628906 2188.800781 1111.921875 2192.148438 C 1114.21875 2195.46875 1116.96875 2198.390625 1120.210938 2200.871094 C 1123.441406 2203.371094 1127.078125 2205.28125 1131.128906 2206.660156 C 1135.179688 2208.039062 1139.578125 2208.75 1144.308594 2208.761719 Z M 1026.511719 2207.429688 L 1035.378906 2207.429688 L 1035.378906 2176.589844 L 1067.660156 2129.789062 L 1057.460938 2129.789062 L 1031.058594 2168.609375 L 1004.878906 2129.789062 L 994.234375 2129.789062 L 1026.511719 2176.699219 L 1026.511719 2207.429688 "/>
<path fill-rule="evenodd" fill="rgb(98.046875%, 36.083984%, 1.177979%)" fill-opacity="1" d="M 1163.078125 1232.121094 C 1185.761719 1166.898438 1223.390625 1108.691406 1271.859375 1061.570312 C 1269.109375 1061.03125 1266.378906 1060.519531 1263.679688 1060.019531 C 1180.210938 1044.769531 1115.089844 1046.898438 1080.890625 1068.699219 C 1081.960938 1062.71875 1083.878906 1057.171875 1086.691406 1052.070312 C 1108.851562 1012.019531 1184.671875 1003.820312 1289.351562 1022.941406 C 1296.609375 1024.269531 1304.011719 1025.738281 1311.511719 1027.328125 C 1385.328125 970.890625 1477.570312 937.320312 1577.648438 937.238281 L 1577.648438 1120.058594 C 1614.328125 1137.078125 1651.691406 1156.019531 1689.261719 1176.800781 C 1834.640625 1257.21875 1954.988281 1349.511719 2032.011719 1433.699219 C 2103.839844 1512.210938 2137.171875 1580.839844 2114.949219 1621 C 2110.46875 1629.109375 2103.769531 1635.921875 2095.089844 1641.460938 C 2102.421875 1600.351562 2069.058594 1539.320312 2006.351562 1470.78125 C 1929.320312 1386.578125 1808.980469 1294.300781 1663.589844 1213.878906 C 1634.75 1197.929688 1606.03125 1183.058594 1577.648438 1169.308594 L 1577.648438 1530.648438 C 1430.671875 1457.03125 1277.96875 1357.78125 1169.628906 1239.371094 C 1167.410156 1236.941406 1165.230469 1234.519531 1163.078125 1232.121094 Z M 1504.160156 1543.699219 C 1490.441406 1536.230469 1476.871094 1528.648438 1463.308594 1520.878906 C 1442.511719 1508.871094 1422.019531 1496.53125 1401.671875 1483.769531 L 1398.621094 1481.851562 C 1358.050781 1456.140625 1318.46875 1428.898438 1280.328125 1399.691406 C 1278.628906 1398.390625 1276.929688 1397.078125 1275.25 1395.78125 L 1275.140625 1395.699219 C 1246.871094 1373.859375 1219.980469 1351.351562 1193.660156 1327.351562 L 1193.199219 1326.929688 C 1177.28125 1312.308594 1162.410156 1297.789062 1148.679688 1283.441406 L 1148.679688 1283.449219 C 1144.378906 1278.960938 1140.191406 1274.480469 1136.121094 1270.03125 C 1050.621094 1176.578125 1014.078125 1089.238281 1046.769531 1030.148438 C 1058.199219 1009.46875 1077.050781 994.128906 1102.050781 983.878906 C 932.816406 1037.421875 984.609375 1176.878906 1098.929688 1301.261719 C 1111.871094 1315.339844 1125.660156 1329.300781 1140.039062 1343.050781 C 1139.210938 1354.078125 1138.78125 1365.21875 1138.78125 1376.460938 C 1138.78125 1618.929688 1335.238281 1815.5 1577.648438 1815.691406 L 1577.648438 1639.421875 C 1812.71875 1748.019531 2038.800781 1783.25 2118.210938 1724.621094 C 2168.308594 1687.628906 2189.511719 1630.53125 2165.449219 1576.699219 C 2168.851562 1601.28125 2165.558594 1623.609375 2154.878906 1642.929688 C 2122.148438 1702.109375 2028.699219 1717.628906 1904.109375 1694.871094 C 1810.011719 1677.671875 1696.371094 1638.980469 1577.648438 1581.421875 L 1576.300781 1580.769531 C 1552.929688 1569.378906 1529.828125 1557.53125 1506.949219 1545.210938 L 1504.160156 1543.699219 "/>
<path fill-rule="evenodd" fill="rgb(98.046875%, 47.068787%, 0%)" fill-opacity="1" d="M 2040.621094 1443.269531 C 2030.421875 1453.300781 2019.558594 1463.121094 2008.101562 1472.710938 L 2006.351562 1470.78125 C 1929.320312 1386.578125 1808.980469 1294.300781 1663.589844 1213.878906 C 1634.75 1197.929688 1606.03125 1183.058594 1577.648438 1169.308594 L 1577.648438 1530.648438 C 1430.671875 1457.03125 1277.96875 1357.78125 1169.628906 1239.371094 C 1167.410156 1236.941406 1165.230469 1234.519531 1163.078125 1232.121094 C 1185.761719 1166.898438 1223.390625 1108.691406 1271.859375 1061.570312 C 1269.109375 1061.03125 1266.378906 1060.519531 1263.679688 1060.019531 C 1180.210938 1044.769531 1115.089844 1046.898438 1080.890625 1068.699219 C 1081.960938 1062.71875 1083.878906 1057.171875 1086.691406 1052.070312 C 1108.851562 1012.019531 1184.671875 1003.820312 1289.351562 1022.941406 C 1296.609375 1024.269531 1304.011719 1025.738281 1311.511719 1027.328125 C 1385.328125 970.890625 1477.570312 937.320312 1577.648438 937.238281 L 1577.648438 1120.058594 C 1614.328125 1137.078125 1651.691406 1156.019531 1689.261719 1176.800781 C 1834.640625 1257.21875 1954.988281 1349.511719 2032.011719 1433.699219 C 2034.949219 1436.910156 2037.808594 1440.089844 2040.621094 1443.269531 Z M 1504.160156 1543.699219 C 1490.441406 1536.230469 1476.871094 1528.648438 1463.308594 1520.878906 C 1442.511719 1508.871094 1422.019531 1496.53125 1401.671875 1483.769531 L 1398.621094 1481.851562 C 1358.050781 1456.140625 1318.46875 1428.898438 1280.328125 1399.691406 C 1278.628906 1398.390625 1276.929688 1397.078125 1275.25 1395.78125 L 1275.140625 1395.699219 C 1246.871094 1373.859375 1219.980469 1351.351562 1193.660156 1327.351562 L 1193.199219 1326.929688 C 1177.28125 1312.308594 1162.410156 1297.789062 1148.679688 1283.441406 L 1148.679688 1283.449219 C 1144.378906 1278.960938 1140.191406 1274.480469 1136.121094 1270.03125 C 1050.621094 1176.578125 1014.078125 1089.238281 1046.769531 1030.148438 C 1058.199219 1009.46875 1077.050781 994.128906 1102.050781 983.878906 C 932.816406 1037.421875 984.609375 1176.878906 1098.929688 1301.261719 C 1111.871094 1315.339844 1125.660156 1329.300781 1140.039062 1343.050781 C 1139.210938 1354.078125 1138.78125 1365.21875 1138.78125 1376.460938 C 1138.78125 1503.679688 1192.871094 1618.21875 1279.289062 1698.429688 C 1384.351562 1695.851562 1484.761719 1683.78125 1577.648438 1663.808594 L 1577.648438 1639.421875 C 1589.738281 1645 1601.800781 1650.378906 1613.820312 1655.570312 C 1641.789062 1648.789062 1668.988281 1641.269531 1695.371094 1633.070312 C 1657.078125 1618.070312 1617.648438 1600.820312 1577.648438 1581.421875 L 1576.300781 1580.769531 C 1552.929688 1569.378906 1529.828125 1557.53125 1506.949219 1545.210938 L 1504.160156 1543.699219 "/>
<path fill-rule="evenodd" fill="rgb(98.046875%, 47.068787%, 0%)" fill-opacity="1" d="M 1666.53125 1353.46875 L 1769.210938 1353.46875 L 1769.210938 1456.148438 L 1666.53125 1456.148438 L 1666.53125 1353.46875 "/>
<path fill-rule="evenodd" fill="rgb(98.046875%, 47.068787%, 0%)" fill-opacity="1" d="M 1796.300781 1044.011719 L 1933.199219 1044.011719 L 1933.199219 1180.921875 L 1796.300781 1180.921875 L 1796.300781 1044.011719 "/>
<path fill-rule="evenodd" fill="rgb(98.046875%, 47.068787%, 0%)" fill-opacity="1" d="M 1950.308594 1272.179688 L 2001.648438 1272.179688 L 2001.648438 1323.519531 L 1950.308594 1323.519531 L 1950.308594 1272.179688 "/>
<path fill-rule="evenodd" fill="rgb(98.046875%, 47.068787%, 0%)" fill-opacity="1" d="M 1762.070312 1494.648438 L 1830.519531 1494.648438 L 1830.519531 1563.101562 L 1762.070312 1563.101562 L 1762.070312 1494.648438 "/>
<path fill-rule="evenodd" fill="rgb(98.046875%, 47.068787%, 0%)" fill-opacity="1" d="M 1984.53125 1170.941406 L 2018.761719 1170.941406 L 2018.761719 1205.160156 L 1984.53125 1205.160156 L 1984.53125 1170.941406 "/>
<path fill-rule="evenodd" fill="rgb(98.046875%, 56.054688%, 1.177979%)" fill-opacity="1" d="M 1852.980469 1279.46875 C 1844.441406 1291.46875 1835.058594 1303.261719 1824.839844 1314.789062 C 1775.871094 1280.109375 1721.738281 1246.039062 1663.589844 1213.878906 C 1634.75 1197.929688 1606.03125 1183.058594 1577.648438 1169.308594 L 1577.648438 1483.898438 C 1561.320312 1491.070312 1544.519531 1497.949219 1527.269531 1504.5 C 1396.460938 1434.171875 1265.628906 1344.300781 1169.628906 1239.371094 C 1167.410156 1236.941406 1165.230469 1234.519531 1163.078125 1232.121094 C 1185.761719 1166.898438 1223.390625 1108.691406 1271.859375 1061.570312 C 1269.109375 1061.03125 1266.378906 1060.519531 1263.679688 1060.019531 C 1180.210938 1044.769531 1115.089844 1046.898438 1080.890625 1068.699219 C 1081.960938 1062.71875 1083.878906 1057.171875 1086.691406 1052.070312 C 1108.851562 1012.019531 1184.671875 1003.820312 1289.351562 1022.941406 C 1296.609375 1024.269531 1304.011719 1025.738281 1311.511719 1027.328125 C 1385.328125 970.890625 1477.570312 937.320312 1577.648438 937.238281 L 1577.648438 1120.058594 C 1614.328125 1137.078125 1651.691406 1156.019531 1689.261719 1176.800781 C 1748.390625 1209.511719 1803.371094 1244.179688 1852.980469 1279.46875 Z M 1469.871094 1524.621094 C 1467.679688 1523.378906 1465.5 1522.128906 1463.308594 1520.878906 C 1442.511719 1508.871094 1422.019531 1496.53125 1401.671875 1483.769531 L 1398.621094 1481.851562 C 1358.050781 1456.140625 1318.46875 1428.898438 1280.328125 1399.691406 C 1278.628906 1398.390625 1276.929688 1397.078125 1275.25 1395.78125 L 1275.140625 1395.699219 C 1246.871094 1373.859375 1219.980469 1351.351562 1193.660156 1327.351562 L 1193.199219 1326.929688 C 1177.28125 1312.308594 1162.410156 1297.789062 1148.679688 1283.441406 L 1148.679688 1283.449219 C 1144.378906 1278.960938 1140.191406 1274.480469 1136.121094 1270.03125 C 1050.621094 1176.578125 1014.078125 1089.238281 1046.769531 1030.148438 C 1058.199219 1009.46875 1077.050781 994.128906 1102.050781 983.878906 C 932.816406 1037.421875 984.609375 1176.878906 1098.929688 1301.261719 C 1111.871094 1315.339844 1125.660156 1329.300781 1140.039062 1343.050781 C 1139.210938 1354.078125 1138.78125 1365.21875 1138.78125 1376.460938 C 1138.78125 1451.441406 1157.578125 1522.019531 1190.699219 1583.769531 C 1290.820312 1572.28125 1384.859375 1552.050781 1469.871094 1524.621094 "/>
<path fill-rule="evenodd" fill="rgb(98.046875%, 56.054688%, 1.177979%)" fill-opacity="1" d="M 1666.53125 1353.46875 L 1769.210938 1353.46875 L 1769.210938 1368.578125 C 1739.03125 1393.828125 1704.609375 1417.480469 1666.53125 1439.289062 L 1666.53125 1353.46875 "/>
<path fill-rule="evenodd" fill="rgb(98.046875%, 56.054688%, 1.177979%)" fill-opacity="1" d="M 1796.300781 1044.011719 L 1905.210938 1044.011719 C 1909.980469 1064.25 1912.449219 1084.859375 1912.449219 1105.789062 C 1912.449219 1131.339844 1908.769531 1156.421875 1901.699219 1180.921875 L 1796.300781 1180.921875 L 1796.300781 1044.011719 "/>
<path fill-rule="evenodd" fill="rgb(98.046875%, 56.054688%, 1.177979%)" fill-opacity="1" d="M 1633.730469 992.671875 L 1719.289062 992.671875 L 1719.289062 1078.238281 L 1633.730469 1078.238281 L 1633.730469 992.671875 "/>
<path fill-rule="evenodd" fill="rgb(98.046875%, 63.867188%, 1.177979%)" fill-opacity="1" d="M 1603.539062 1132.339844 C 1598.980469 1146.328125 1593.28125 1160.101562 1586.539062 1173.648438 C 1583.578125 1172.191406 1580.609375 1170.738281 1577.648438 1169.308594 L 1577.648438 1190.339844 C 1533.238281 1268.289062 1453.398438 1337.988281 1348.128906 1394.058594 C 1282.230469 1347.25 1220.949219 1295.460938 1169.628906 1239.371094 C 1167.410156 1236.941406 1165.230469 1234.519531 1163.078125 1232.121094 C 1185.761719 1166.898438 1223.390625 1108.691406 1271.859375 1061.570312 C 1269.109375 1061.03125 1266.378906 1060.519531 1263.679688 1060.019531 C 1180.210938 1044.769531 1115.089844 1046.898438 1080.890625 1068.699219 C 1081.960938 1062.71875 1083.878906 1057.171875 1086.691406 1052.070312 C 1108.851562 1012.019531 1184.671875 1003.820312 1289.351562 1022.941406 C 1296.609375 1024.269531 1304.011719 1025.738281 1311.511719 1027.328125 C 1385.328125 970.890625 1477.570312 937.320312 1577.648438 937.238281 L 1577.648438 1120.058594 C 1586.25 1124.050781 1594.878906 1128.140625 1603.539062 1132.339844 Z M 1302.859375 1416.589844 C 1295.289062 1411.03125 1287.78125 1405.398438 1280.328125 1399.691406 C 1278.628906 1398.390625 1276.929688 1397.078125 1275.25 1395.78125 L 1275.140625 1395.699219 C 1246.871094 1373.859375 1219.980469 1351.351562 1193.660156 1327.351562 L 1193.199219 1326.929688 C 1177.28125 1312.308594 1162.410156 1297.789062 1148.679688 1283.441406 L 1148.679688 1283.449219 C 1144.378906 1278.960938 1140.191406 1274.480469 1136.121094 1270.03125 C 1050.621094 1176.578125 1014.078125 1089.238281 1046.769531 1030.148438 C 1058.199219 1009.46875 1077.050781 994.128906 1102.050781 983.878906 C 932.816406 1037.421875 984.609375 1176.878906 1098.929688 1301.261719 C 1111.871094 1315.339844 1125.660156 1329.300781 1140.039062 1343.050781 C 1139.210938 1354.078125 1138.78125 1365.21875 1138.78125 1376.460938 C 1138.78125 1410.089844 1142.570312 1442.820312 1149.730469 1474.28125 C 1204.5 1457.839844 1255.800781 1438.488281 1302.859375 1416.589844 "/>
<path fill-rule="evenodd" fill="rgb(100%, 80.076599%, 10.984802%)" fill-opacity="1" d="M 1382.441406 983.101562 C 1387.28125 1003.46875 1389.769531 1024.230469 1389.769531 1045.300781 C 1389.769531 1143.289062 1335.800781 1234.539062 1242.929688 1311.050781 C 1216.859375 1288.03125 1192.28125 1264.121094 1169.628906 1239.371094 C 1167.410156 1236.941406 1165.230469 1234.519531 1163.078125 1232.121094 C 1185.761719 1166.898438 1223.390625 1108.691406 1271.859375 1061.570312 C 1269.109375 1061.03125 1266.378906 1060.519531 1263.679688 1060.019531 C 1180.210938 1044.769531 1115.089844 1046.898438 1080.890625 1068.699219 C 1081.960938 1062.71875 1083.878906 1057.171875 1086.691406 1052.070312 C 1108.851562 1012.019531 1184.671875 1003.820312 1289.351562 1022.941406 C 1296.609375 1024.269531 1304.011719 1025.738281 1311.511719 1027.328125 C 1333.601562 1010.441406 1357.339844 995.609375 1382.441406 983.101562 Z M 1206.5 1338.898438 C 1202.199219 1335.089844 1197.929688 1331.238281 1193.660156 1327.351562 L 1193.199219 1326.929688 C 1177.28125 1312.308594 1162.410156 1297.789062 1148.679688 1283.441406 L 1148.679688 1283.449219 C 1144.378906 1278.960938 1140.191406 1274.480469 1136.121094 1270.03125 C 1050.621094 1176.578125 1014.078125 1089.238281 1046.769531 1030.148438 C 1058.199219 1009.46875 1077.050781 994.128906 1102.050781 983.878906 C 932.816406 1037.421875 984.609375 1176.878906 1098.929688 1301.261719 C 1111.871094 1315.339844 1125.660156 1329.300781 1140.039062 1343.050781 C 1139.210938 1354.078125 1138.78125 1365.21875 1138.78125 1376.460938 C 1138.78125 1378.210938 1138.820312 1379.929688 1138.839844 1381.671875 C 1162.878906 1368.128906 1185.46875 1353.851562 1206.5 1338.898438 "/>
</svg>
