<svg width="815" height="187" viewBox="0 0 815 187" fill="none" xmlns="http://www.w3.org/2000/svg">
<path d="M54.5 103.5C69.3 26.3 24.3333 2.33333 0 0H815C788.833 0 741.3 20.7 760.5 103.5C779.7 186.3 719.167 192 686.5 184.5H127C96.6667 189.667 39.7 180.7 54.5 103.5Z" fill="#00FF38"/>
<path d="M129.106 115L136.623 69.717H166.606L165.279 77.6106H144.871L143.102 88.4006H161.52L160.193 96.2942H141.775L138.68 115H129.106ZM164.804 115L170.464 81.0377H179.596L178.601 86.9634H178.954C179.927 84.8555 181.232 83.2636 182.868 82.1875C184.519 81.0967 186.295 80.5513 188.197 80.5513C188.668 80.5513 189.162 80.5808 189.678 80.6397C190.209 80.684 190.681 80.7577 191.093 80.8608L189.678 89.2409C189.265 89.0935 188.676 88.9755 187.909 88.8871C187.158 88.7839 186.443 88.7323 185.765 88.7323C184.394 88.7323 183.119 89.0345 181.939 89.6389C180.76 90.2285 179.765 91.0539 178.954 92.1153C178.158 93.1766 177.635 94.4001 177.385 95.7857L174.223 115H164.804ZM204.089 115.663C200.61 115.663 197.728 114.956 195.444 113.541C193.159 112.111 191.552 110.091 190.623 107.482C189.71 104.858 189.555 101.756 190.159 98.1736C190.749 94.6801 191.935 91.6141 193.719 88.9755C195.517 86.337 197.773 84.2807 200.485 82.8066C203.197 81.3325 206.219 80.5955 209.55 80.5955C211.791 80.5955 213.818 80.9567 215.631 81.6789C217.459 82.3865 218.977 83.4626 220.186 84.9071C221.394 86.337 222.22 88.1279 222.662 90.2801C223.119 92.4322 223.112 94.9528 222.64 97.842L222.22 100.429H193.564L194.471 94.5917H214.282C214.503 93.2356 214.415 92.0342 214.017 90.9876C213.619 89.941 212.955 89.1229 212.027 88.5333C211.098 87.9289 209.956 87.6268 208.6 87.6268C207.214 87.6268 205.917 87.9658 204.708 88.6439C203.499 89.3219 202.482 90.2137 201.657 91.3193C200.846 92.4101 200.323 93.5967 200.087 94.8791L199.048 100.672C198.753 102.456 198.812 103.937 199.225 105.116C199.652 106.296 200.389 107.18 201.436 107.77C202.482 108.345 203.809 108.632 205.416 108.632C206.462 108.632 207.442 108.485 208.356 108.19C209.285 107.895 210.11 107.46 210.833 106.885C211.555 106.296 212.145 105.566 212.602 104.696L221.203 105.271C220.407 107.364 219.198 109.192 217.577 110.755C215.955 112.302 214.002 113.511 211.717 114.381C209.447 115.236 206.904 115.663 204.089 115.663ZM241.362 115.663C237.884 115.663 235.002 114.956 232.717 113.541C230.432 112.111 228.825 110.091 227.897 107.482C226.983 104.858 226.828 101.756 227.432 98.1736C228.022 94.6801 229.209 91.6141 230.992 88.9755C232.791 86.337 235.046 84.2807 237.758 82.8066C240.471 81.3325 243.492 80.5955 246.824 80.5955C249.064 80.5955 251.091 80.9567 252.904 81.6789C254.732 82.3865 256.25 83.4626 257.459 84.9071C258.668 86.337 259.493 88.1279 259.935 90.2801C260.392 92.4322 260.385 94.9528 259.913 97.842L259.493 100.429H230.838L231.744 94.5917H251.555C251.777 93.2356 251.688 92.0342 251.29 90.9876C250.892 89.941 250.229 89.1229 249.3 88.5333C248.371 87.9289 247.229 87.6268 245.873 87.6268C244.487 87.6268 243.19 87.9658 241.981 88.6439C240.773 89.3219 239.756 90.2137 238.93 91.3193C238.119 92.4101 237.596 93.5967 237.36 94.8791L236.321 100.672C236.026 102.456 236.085 103.937 236.498 105.116C236.925 106.296 237.662 107.18 238.709 107.77C239.756 108.345 241.082 108.632 242.689 108.632C243.736 108.632 244.716 108.485 245.63 108.19C246.558 107.895 247.384 107.46 248.106 106.885C248.828 106.296 249.418 105.566 249.875 104.696L258.476 105.271C257.68 107.364 256.471 109.192 254.85 110.755C253.228 112.302 251.275 113.511 248.991 114.381C246.721 115.236 244.178 115.663 241.362 115.663ZM322.631 85.5705H313.079C313.108 84.3028 312.946 83.1825 312.592 82.2096C312.239 81.222 311.708 80.3818 311 79.689C310.308 78.9962 309.46 78.4729 308.458 78.1191C307.455 77.7506 306.328 77.5663 305.075 77.5663C302.657 77.5663 300.439 78.1707 298.419 79.3794C296.4 80.5881 294.697 82.3423 293.312 84.6418C291.926 86.9266 290.968 89.6904 290.437 92.9334C289.921 96.0584 289.951 98.6748 290.526 100.783C291.101 102.891 292.118 104.483 293.577 105.559C295.051 106.62 296.886 107.151 299.083 107.151C300.439 107.151 301.729 106.981 302.952 106.642C304.176 106.288 305.288 105.787 306.291 105.139C307.308 104.475 308.192 103.672 308.944 102.728C309.711 101.785 310.308 100.716 310.735 99.5224H320.353C319.749 101.601 318.806 103.606 317.523 105.537C316.255 107.468 314.686 109.192 312.814 110.71C310.941 112.214 308.811 113.408 306.424 114.292C304.036 115.177 301.419 115.619 298.574 115.619C294.462 115.619 290.931 114.676 287.983 112.789C285.05 110.902 282.934 108.182 281.637 104.63C280.34 101.078 280.097 96.7954 280.908 91.7836C281.718 86.934 283.303 82.8213 285.661 79.4458C288.035 76.0554 290.916 73.4832 294.307 71.7291C297.712 69.9749 301.353 69.0979 305.23 69.0979C307.927 69.0979 310.367 69.4664 312.548 70.2034C314.73 70.9404 316.587 72.0165 318.12 73.4316C319.668 74.832 320.832 76.5492 321.614 78.5834C322.395 80.6176 322.734 82.9466 322.631 85.5705ZM339.866 115.663C336.402 115.663 333.535 114.926 331.265 113.452C328.995 111.963 327.396 109.9 326.467 107.261C325.553 104.608 325.384 101.52 325.958 97.9968C326.519 94.518 327.683 91.4741 329.452 88.865C331.221 86.2559 333.469 84.2291 336.196 82.7845C338.923 81.3252 341.996 80.5955 345.416 80.5955C348.865 80.5955 351.725 81.3399 353.995 82.8287C356.265 84.3028 357.864 86.3664 358.793 89.0198C359.722 91.6731 359.899 94.7612 359.324 98.2842C358.749 101.748 357.57 104.785 355.786 107.394C354.002 110.003 351.754 112.037 349.042 113.496C346.33 114.941 343.271 115.663 339.866 115.663ZM340.795 108.367C342.387 108.367 343.795 107.917 345.018 107.018C346.256 106.104 347.281 104.866 348.091 103.303C348.917 101.726 349.492 99.9425 349.816 97.9525C350.14 95.992 350.162 94.2527 349.882 92.7344C349.602 91.2014 349.013 89.9926 348.114 89.1082C347.229 88.2238 346.013 87.7815 344.465 87.7815C342.873 87.7815 341.458 88.2385 340.22 89.1524C338.982 90.0516 337.957 91.2898 337.147 92.867C336.336 94.4443 335.768 96.2353 335.444 98.24C335.134 100.186 335.112 101.925 335.378 103.458C335.643 104.976 336.225 106.178 337.124 107.062C338.024 107.932 339.247 108.367 340.795 108.367ZM375.398 95.3656L372.126 115H362.729L368.389 81.0377H377.344L376.371 87.0298H376.747C377.823 85.0398 379.341 83.4699 381.302 82.3202C383.277 81.1704 385.525 80.5955 388.046 80.5955C390.404 80.5955 392.372 81.1114 393.949 82.1433C395.541 83.1751 396.662 84.6418 397.31 86.5433C397.973 88.4449 398.084 90.7223 397.642 93.3756L394.016 115H384.596L387.935 95.056C388.274 92.9776 388.009 91.3561 387.139 90.1916C386.284 89.0124 384.906 88.4228 383.004 88.4228C381.737 88.4228 380.572 88.6955 379.511 89.2409C378.45 89.7863 377.558 90.5823 376.836 91.6288C376.128 92.6607 375.649 93.9062 375.398 95.3656ZM433.655 90.7223L425.098 91.2529C425.054 90.5012 424.847 89.8305 424.479 89.2409C424.125 88.6365 423.602 88.1574 422.909 87.8037C422.231 87.4499 421.376 87.273 420.344 87.273C418.796 87.273 417.418 87.6268 416.209 88.3343C415.001 89.0419 414.315 89.9484 414.153 91.0539C414.02 91.7615 414.205 92.3585 414.706 92.8449C415.207 93.3314 416.217 93.7441 417.735 94.0831L423.705 95.3213C426.889 95.9994 429.188 97.1271 430.604 98.7043C432.033 100.282 432.542 102.345 432.129 104.895C431.761 107.062 430.81 108.956 429.277 110.578C427.744 112.185 425.798 113.437 423.44 114.337C421.081 115.221 418.465 115.663 415.59 115.663C410.976 115.663 407.468 114.72 405.066 112.833C402.663 110.946 401.506 108.389 401.594 105.161L410.792 104.674C410.866 106.06 411.352 107.106 412.252 107.814C413.151 108.507 414.382 108.861 415.944 108.875C417.698 108.905 419.187 108.544 420.41 107.792C421.649 107.025 422.349 106.097 422.511 105.006C422.629 104.239 422.408 103.62 421.848 103.149C421.302 102.677 420.3 102.286 418.841 101.977L413.18 100.805C409.967 100.142 407.66 98.9549 406.26 97.245C404.859 95.5351 404.38 93.3608 404.822 90.7223C405.176 88.6144 406.053 86.8087 407.453 85.3051C408.869 83.7869 410.689 82.6223 412.915 81.8116C415.155 81.0009 417.683 80.5955 420.499 80.5955C424.906 80.5955 428.223 81.5021 430.449 83.3152C432.689 85.1282 433.758 87.5973 433.655 90.7223ZM460.547 100.54L463.797 81.0377H473.217L467.556 115H458.513L459.53 108.831H459.176C458.13 110.821 456.604 112.42 454.599 113.629C452.595 114.838 450.317 115.442 447.767 115.442C445.497 115.442 443.581 114.926 442.018 113.894C440.471 112.863 439.372 111.396 438.724 109.494C438.075 107.593 437.965 105.315 438.392 102.662L442.018 81.0377H451.438L448.121 100.982C447.811 102.986 448.091 104.571 448.961 105.736C449.831 106.9 451.157 107.482 452.941 107.482C454.076 107.482 455.174 107.224 456.236 106.708C457.312 106.178 458.24 105.397 459.022 104.365C459.803 103.333 460.311 102.058 460.547 100.54ZM492.027 69.717L484.51 115H475.091L482.608 69.717H492.027ZM508.992 69.717L501.474 115H492.055L499.573 69.717H508.992ZM532.745 81.0377L531.573 88.1132H511.098L512.292 81.0377H532.745ZM518.262 72.9009H527.681L522.419 104.564C522.271 105.433 522.294 106.111 522.485 106.598C522.677 107.07 522.994 107.401 523.436 107.593C523.893 107.784 524.438 107.88 525.072 107.88C525.514 107.88 525.964 107.843 526.421 107.77C526.878 107.681 527.224 107.615 527.46 107.571L527.814 114.58C527.283 114.742 526.568 114.919 525.669 115.111C524.785 115.302 523.738 115.42 522.529 115.464C520.23 115.553 518.284 115.251 516.692 114.558C515.1 113.85 513.958 112.767 513.265 111.307C512.572 109.848 512.425 108.013 512.823 105.802L518.262 72.9009ZM542.816 115.641C540.664 115.641 538.799 115.265 537.222 114.514C535.66 113.747 534.51 112.612 533.773 111.108C533.036 109.605 532.851 107.74 533.22 105.514C533.544 103.628 534.156 102.05 535.055 100.783C535.969 99.5003 537.082 98.4685 538.394 97.6872C539.706 96.906 541.158 96.309 542.75 95.8962C544.357 95.4835 546.015 95.2034 547.725 95.056C549.7 94.8496 551.307 94.6506 552.545 94.459C553.798 94.2674 554.734 93.9947 555.353 93.6409C555.972 93.2724 556.348 92.727 556.481 92.0047V91.8721C556.702 90.4864 556.444 89.4104 555.707 88.6439C554.984 87.8626 553.827 87.472 552.235 87.472C550.555 87.472 549.125 87.8405 547.946 88.5775C546.781 89.3146 545.948 90.2506 545.447 91.3856L536.868 90.6781C537.635 88.6144 538.792 86.8308 540.34 85.3272C541.902 83.809 543.782 82.6445 545.978 81.8337C548.174 81.0083 550.636 80.5955 553.363 80.5955C555.25 80.5955 557.011 80.8166 558.647 81.2588C560.298 81.7011 561.721 82.3865 562.915 83.3152C564.124 84.2438 564.993 85.4378 565.524 86.8971C566.069 88.3417 566.18 90.0737 565.856 92.0932L562.03 115H553.098L553.894 110.29H553.628C552.906 111.352 552.022 112.288 550.975 113.098C549.928 113.894 548.727 114.521 547.371 114.978C546.015 115.42 544.497 115.641 542.816 115.641ZM546.597 109.141C547.968 109.141 549.228 108.868 550.378 108.323C551.543 107.762 552.501 107.011 553.252 106.067C554.019 105.124 554.505 104.055 554.712 102.861L555.287 99.2571C554.992 99.4487 554.564 99.6182 554.004 99.7656C553.459 99.913 552.862 100.053 552.213 100.186C551.579 100.304 550.938 100.414 550.29 100.517C549.641 100.606 549.059 100.694 548.543 100.783C547.408 100.945 546.391 101.203 545.492 101.557C544.592 101.91 543.863 102.389 543.303 102.994C542.742 103.583 542.396 104.32 542.263 105.205C542.057 106.487 542.359 107.468 543.17 108.146C543.995 108.809 545.138 109.141 546.597 109.141ZM593.063 81.0377L591.891 88.1132H571.416L572.61 81.0377H593.063ZM578.58 72.9009H588L582.737 104.564C582.59 105.433 582.612 106.111 582.804 106.598C582.995 107.07 583.312 107.401 583.754 107.593C584.211 107.784 584.757 107.88 585.391 107.88C585.833 107.88 586.282 107.843 586.739 107.77C587.196 107.681 587.543 107.615 587.779 107.571L588.132 114.58C587.602 114.742 586.887 114.919 585.988 115.111C585.103 115.302 584.057 115.42 582.848 115.464C580.548 115.553 578.603 115.251 577.011 114.558C575.419 113.85 574.276 112.767 573.583 111.307C572.891 109.848 572.743 108.013 573.141 105.802L578.58 72.9009ZM593.538 115L599.199 81.0377H608.618L602.958 115H593.538ZM604.881 76.6156C603.481 76.6156 602.324 76.1512 601.41 75.2226C600.511 74.2792 600.142 73.1589 600.304 71.8617C600.466 70.5351 601.1 69.4148 602.206 68.5009C603.311 67.5722 604.564 67.1079 605.965 67.1079C607.365 67.1079 608.507 67.5722 609.392 68.5009C610.276 69.4148 610.645 70.5351 610.497 71.8617C610.35 73.1589 609.724 74.2792 608.618 75.2226C607.527 76.1512 606.282 76.6156 604.881 76.6156ZM625.892 115.663C622.428 115.663 619.561 114.926 617.291 113.452C615.021 111.963 613.422 109.9 612.493 107.261C611.579 104.608 611.41 101.52 611.984 97.9968C612.545 94.518 613.709 91.4741 615.478 88.865C617.247 86.2559 619.495 84.2291 622.222 82.7845C624.949 81.3252 628.022 80.5955 631.442 80.5955C634.891 80.5955 637.751 81.3399 640.021 82.8287C642.291 84.3028 643.89 86.3664 644.819 89.0198C645.748 91.6731 645.925 94.7612 645.35 98.2842C644.775 101.748 643.596 104.785 641.812 107.394C640.028 110.003 637.78 112.037 635.068 113.496C632.356 114.941 629.297 115.663 625.892 115.663ZM626.821 108.367C628.413 108.367 629.82 107.917 631.044 107.018C632.282 106.104 633.307 104.866 634.117 103.303C634.943 101.726 635.518 99.9425 635.842 97.9525C636.166 95.992 636.188 94.2527 635.908 92.7344C635.628 91.2014 635.039 89.9926 634.139 89.1082C633.255 88.2238 632.039 87.7815 630.491 87.7815C628.899 87.7815 627.484 88.2385 626.246 89.1524C625.008 90.0516 623.983 91.2898 623.172 92.867C622.362 94.4443 621.794 96.2353 621.47 98.24C621.16 100.186 621.138 101.925 621.404 103.458C621.669 104.976 622.251 106.178 623.15 107.062C624.05 107.932 625.273 108.367 626.821 108.367ZM661.424 95.3656L658.152 115H648.755L654.415 81.0377H663.37L662.397 87.0298H662.773C663.849 85.0398 665.367 83.4699 667.328 82.3202C669.303 81.1704 671.551 80.5955 674.072 80.5955C676.43 80.5955 678.398 81.1114 679.975 82.1433C681.567 83.1751 682.688 84.6418 683.336 86.5433C683.999 88.4449 684.11 90.7223 683.668 93.3756L680.042 115H670.622L673.961 95.056C674.3 92.9776 674.035 91.3561 673.165 90.1916C672.31 89.0124 670.932 88.4228 669.03 88.4228C667.763 88.4228 666.598 88.6955 665.537 89.2409C664.476 89.7863 663.584 90.5823 662.861 91.6288C662.154 92.6607 661.675 93.9062 661.424 95.3656Z" fill="white"/>
</svg>
